<?xml version="1.0" encoding="utf-8"?>
<!-- Generator: Adobe Illustrator 21.1.0, SVG Export Plug-In . SVG Version: 6.00 Build 0)  -->
<svg version="1.1" id="Слой_1" xmlns="http://www.w3.org/2000/svg" xmlns:xlink="http://www.w3.org/1999/xlink" x="0px" y="0px"
	 viewBox="0 0 272.8 360.4" style="enable-background:new 0 0 272.8 360.4;" xml:space="preserve">
<g>
	<path d="M144.9,360.4h-21.2c-56.3,0-102-45.8-102-102V123.6l8.6,5.3c1.2,0.8,2.3,1.5,3.4,2.3c3.9,2.8,6.8,4.8,14.7,4
		c12.7-1.2,14.8-3.9,17.2-6.9c0,0,0-0.1,0.1-0.1c-4.4-10.1-5.6-32.1-6.2-69.6c-0.2-10.7-0.4-20.9-0.9-24.4l11.2-1.7
		c0.7,4.3,0.8,13.8,1,25.9c0.2,12.8,0.5,28.6,1.5,41.8c1.5,20.3,3.9,24.1,4.4,24.6l0.7,0.6c4.4,4.3,12.6,12.4,49.8,14.3
		c2.8,0.1,15.4-1.1,26.5-2.2c18-1.7,29.1-2.8,33-2.4c45.1,4.1,53.8,22.1,57.9,30.8c0.4,0.9,1,2,1.2,2.4l1.3,1.6v4.9v83.7
		C247,314.6,201.2,360.4,144.9,360.4z M33,144v114.3c0,50,40.7,90.7,90.7,90.7h21.2c50,0,90.7-40.7,90.7-90.7v-84.8
		c-0.5-0.8-0.9-1.8-1.4-2.8c-3.5-7.3-10-20.9-48.7-24.4c-3.1-0.3-19.2,1.3-30.9,2.4c-15.2,1.5-24.7,2.4-28.2,2.2
		c-32.4-1.6-45.5-7.7-53.3-14.1c-3.9,4.6-9.1,8.1-23.6,9.5C41.8,147.1,36.8,145.9,33,144z"/>
</g>
<g>
	<path d="M25.9,193.7C5,188.3,5.5,149.3,5.8,128.4c0-2.5,0.1-4.7,0-6c-1.2-35,13.2-67,21.7-75.1c7.3-7,21.4-18.9,33.6-19.8l0.8,11.3
		c-6.1,0.5-16.3,6.8-26.6,16.7C29.9,60.7,16,89.1,17.1,122c0.1,1.5,0,3.7,0,6.5c-0.1,8.2-0.3,21.9,1.5,33.7
		c1.9,12,5.4,19.3,10.1,20.5L25.9,193.7z"/>
</g>
<g>
	<path d="M257.7,188.2h-11.3v-109c0-22.4-8.4-39.7-24.8-51.4C206.5,17,185,11.4,159.4,11.4H139c-28.9,0-57.7,10.1-73.4,25.8l-8-8
		C75.6,11.2,106.8,0,139,0h20.4c27.9,0,51.7,6.4,68.8,18.5c19.4,13.8,29.6,34.8,29.6,60.6v109.1H257.7z"/>
</g>
<g>
	<path d="M25.2,246C9,246-4.1,232.8-4.1,216.7s13.2-29.3,29.3-29.3v11.3c-9.9,0-18,8.1-18,18s8.1,18,18,18V246z"/>
</g>
<g>
	<path d="M243.5,241.2v-11.3c9.9,0,18-8.1,18-18c0-12.4-10.5-18-18-18v-11.3c14.4,0,29.3,11,29.3,29.3
		C272.8,228.1,259.6,241.2,243.5,241.2z"/>
</g>
<g>
	<path d="M184,95.9h-82.1l-0.6-0.1c-6.6-1.5-16.2-5.2-23.5-11.3c-8.9-7.4-17.9-28.2-18-28.4l10.4-4.5c3.2,7.4,10.1,20.3,14.9,24.2
		c5.6,4.6,13.1,7.6,18.2,8.9H184V95.9z"/>
</g>
<g>
	<path d="M184,125.1h-82.1l-0.6-0.1c-6.6-1.5-16.2-5.2-23.5-11.3c-8.9-7.4-17.9-28.2-18-28.4l10.4-4.5c3.2,7.4,10.1,20.3,14.9,24.2
		c5.6,4.6,13.1,7.6,18.2,8.9H184V125.1z"/>
</g>
<g>
	<rect x="58" y="187.3" width="48.5" height="11.3"/>
</g>
<g>
	<rect x="160.8" y="187.3" width="48.5" height="11.3"/>
</g>
<g>
	<circle cx="84" cy="221.9" r="11"/>
</g>
<g>
	<circle cx="184" cy="221.9" r="11"/>
</g>
<g>
	<path d="M136.4,268.6h-7.5c-7.5,0-13.6-6.1-13.6-13.6v-7.5h11.3v7.5c0,1.2,1,2.3,2.3,2.3h7.5c1.2,0,2.3-1,2.3-2.3v-7.5H150v7.5
		C150,262.5,143.9,268.6,136.4,268.6z"/>
</g>
<g>
	<rect x="101.5" y="296.6" width="65.5" height="11.3"/>
</g>
<g>
	<rect x="124.4" y="311.1" width="16.6" height="11.3"/>
</g>
</svg>
