<?xml version="1.0" encoding="utf-8"?>
<svg version="1.1" id="calendar" xmlns="http://www.w3.org/2000/svg" xmlns:xlink="http://www.w3.org/1999/xlink" x="0px" y="0px"
	 viewBox="0 0 409.5 385.3" style="enable-background:new 0 0 409.5 385.3;" xml:space="preserve">
<path d="M0,348.8c0-83.5,0-166.9,0-250.4c0.3-0.7,0.6-1.4,0.8-2.2C3.6,83.6,10.6,74,21.9,67.5c6.7-3.8,13.8-5.3,21.4-5.3
	c11,0.1,22.1,0,33.5,0c0-1.8,0-3.3,0-4.7c0-12.9,0-25.9,0-38.8c0-11.2,6.6-18.1,17.7-18.5c8.1-0.3,16.3-0.2,24.4,0
	c11.3,0.3,17.9,7.2,17.9,18.6c0,12.9,0,25.9,0,38.8c0,1.4,0,2.8,0,4.2c45.6,0,90.7,0,136,0c0-14.6,0-28.9,0-43.1
	c0-11.3,6.7-18.2,18-18.5c8-0.2,16-0.2,24,0c11.3,0.3,17.9,7.2,17.9,18.6c0,12.9,0,25.9,0,38.8c0,1.4,0,2.8,0,4.6c11,0,21.5,0,32,0
	c2.9,0,5.9-0.1,8.8,0.4c21.1,3.4,35.9,20.6,36,42c0.1,79.5,0,158.9,0,238.4c0,0.9,0,1.9-0.1,2.8c-0.5,8.3-3.3,15.9-8.4,22.5
	c-9.2,12-21.6,17-36.5,17c-98.9-0.1-197.8,0-296.7,0c-8.1,0-16.3,0-24.4,0c-14.7,0-27-5.5-35.3-17.7C4.4,362,2.7,355.1,0,348.8z
	 M16,170.1c126.2,0,251.7,0,377.4,0c0-4,0-7.8,0-11.9c-1.7,0-3.1,0-4.6,0c-19.3,0-38.7,0-58,0c-1.8,0-3.8-0.1-5.5-0.6
	c-3.7-1-5.5-3.7-5.5-7.4c0-3.8,1.9-6.4,5.5-7.5c1.6-0.5,3.4-0.5,5.1-0.5c19.6,0,39.2,0,58.8,0c1.4,0,2.8,0,4.4,0c0-2,0-3.3,0-4.6
	c0-11.6,0.3-23.2-0.2-34.8c-0.5-12.3-9.3-23-21.2-24c-12.9-1.1-26-0.2-39.4-0.2c0,4.1,0,8.2,0,12.3c-0.1,10.8-7,17.8-17.8,17.9
	c-7.9,0.1-15.7,0.1-23.6,0c-11.8-0.1-18.6-6.9-18.6-18.7c0-3.9,0-7.9,0-11.7c-45.6,0-90.6,0-136,0c0,4.3,0,8.4,0,12.5
	c-0.1,10.8-7,17.7-17.8,17.9c-8.1,0.1-16.3,0.1-24.4,0c-10.8-0.1-17.6-7.1-17.8-17.9c-0.1-4.1,0-8.2,0-12.7c-11.1,0-21.9,0-32.6,0
	c-17.5,0-28.1,10.7-28.2,28.2c0,19.9,0,39.7,0,59.6C16,167.3,16,168.6,16,170.1z M114.5,368.9c27.6,0,54.9,0,82,0
	c0-27.9,0-55.4,0-82.9c-27.5,0-54.7,0-82,0C114.5,313.8,114.5,341.2,114.5,368.9z M98.3,186.6c-27.6,0-54.8,0-82,0
	c0,27.8,0,55.3,0,82.8c27.5,0,54.7,0,82,0C98.3,241.7,98.3,214.3,98.3,186.6z M213,186.5c0,27.9,0,55.4,0,82.9c27.5,0,54.7,0,81.9,0
	c0-27.8,0-55.3,0-82.9C267.6,186.5,240.4,186.5,213,186.5z M98.1,369.3c0-28.2,0-55.8,0-83.3c-27.5,0-54.6,0-81.7,0
	c0,20.4-0.6,40.7,0.2,60.9c0.5,12.2,10.7,21.4,23,22c12.2,0.7,24.5,0.4,36.7,0.4C83.5,369.3,90.6,369.3,98.1,369.3z M311.5,285.8
	c0,27.9,0,55.5,0,83.1c0.7,0.1,1,0.3,1.4,0.3c18,0,36,0.3,53.9-0.1c16.5-0.3,26.7-11.3,26.7-27.9c0-17.2,0-34.4,0-51.5
	c0-1.3,0-2.5,0-3.9C365.9,285.8,338.9,285.8,311.5,285.8z M294.9,369c0-27.9,0-55.5,0-83.1c-27.5,0-54.6,0-81.9,0
	c0,27.8,0,55.3,0,83.1C240.4,369,267.6,369,294.9,369z M114.7,186.5c0,27.9,0,55.4,0,82.9c27.5,0,54.7,0,81.9,0
	c0-27.8,0-55.3,0-82.9C169.2,186.5,142,186.5,114.7,186.5z M393.5,186.6c-27.6,0-54.8,0-82,0c0,27.8,0,55.3,0,82.8
	c27.5,0,54.7,0,82,0C393.5,241.7,393.5,214.3,393.5,186.6z M120.6,92.7c0-25.6,0-50.7,0-76.1c-9.3,0-18.4,0-27.4,0
	c0,25.6,0,50.8,0,76.1C102.4,92.7,111.3,92.7,120.6,92.7z M289.1,16.6c0,25.5,0,50.7,0,76c9.3,0,18.3,0,27.4,0c0-25.5,0-50.7,0-76
	C307.2,16.6,298.2,16.6,289.1,16.6z"/>
<path d="M304,142.3c4.7,0,8.2,3.5,8.1,8.1c-0.1,4.3-3.6,7.7-8,7.8c-4.5,0.1-8.2-3.4-8.3-7.9C295.8,145.7,299.3,142.3,304,142.3z"/>
<path d="M151.7,232.5c6.3-8.4,11.8-15.7,17.3-23c1-1.3,2-2.5,3.2-3.5c2.8-2.4,6.6-2.4,9.6-0.2c2.8,2.1,3.9,6,2.5,9.3
	c-0.6,1.3-1.4,2.6-2.3,3.7c-7.1,9.5-14.2,19-21.3,28.4c-4.6,6.1-9.3,6.4-14.7,1.1c-5.9-5.8-11.8-11.6-17.5-17.6
	c-3.3-3.4-3.1-8.1-0.2-11.1c3.1-3.2,7.7-3.2,11.5,0c1.3,1.1,2.5,2.4,3.7,3.7C146.2,226.2,148.8,229.2,151.7,232.5z"/>
</svg>
