<?xml version="1.0" encoding="utf-8"?>
<!-- Generator: Adobe Illustrator 21.1.0, SVG Export Plug-In . SVG Version: 6.00 Build 0)  -->
<svg version="1.1" id="Слой_1" xmlns="http://www.w3.org/2000/svg" xmlns:xlink="http://www.w3.org/1999/xlink" x="0px" y="0px"
	 viewBox="0 0 293.5 191.9" style="enable-background:new 0 0 293.5 191.9;" xml:space="preserve">
<title>cardiogram</title>
<path d="M288.9,159.3c-0.9,1.1-2.2,1.7-3.6,1.7H232c-5.4,0-10.1-3.9-10.9-9.3c-3.1-19.3-6.1-38.6-9.1-57.9
	c-2.2-13.9-4.4-27.7-6.8-42.6c-0.4,1-0.8,2.1-1.1,3.2c-4.3,20.4-8.6,40.9-12.9,61.4c-2.7,12.8-5.3,25.5-8,38.3
	c-0.8,3.7-2.6,6.5-6.5,7.1s-6.6-1.4-8.5-4.6c-1.7-2.9-3.4-5.7-5.1-8.6c-3.4-5.7-6.8-11.4-10.5-17.4c-1.7,3.1-3.2,5.6-4.6,8.1
	c-8.9,15.9-17.7,31.9-26.6,47.8c-2.6,4.7-6.3,6.7-10,4.6c-2.3-1.4-4.2-3.5-5.2-6.1C98,164.8,89.9,144.4,81.7,124L67.6,88.7
	c-0.9,1.8-1.5,3-2,4.2c-9.4,20.6-18.8,41.2-28,61.8c-2,4.4-4.9,6.6-9.9,6.4c-4.8-0.2-9.6,0-14.4,0h-2.7c-2.3,0-4.5-1.1-5.9-3
	l-3.7-4.9c-1.5-2-1.1-5,0.9-6.5c0.8-0.6,1.8-0.9,2.8-0.9c5.7,0,11.4,0,17.1,0.1c2.2,0,3.3-0.7,4.1-2.7c4.4-9.9,8.9-19.6,13.4-29.5
	c7.1-15.5,14.1-31,21.2-46.5c2.5-5.5,7.5-7.5,11.5-4.4c1.9,1.6,3.3,3.8,4.1,6.1c12.6,31.1,25,62.2,37.5,93.4c0.5,1.1,1,2.2,1.7,3.9
	c1.1-1.9,1.8-3.2,2.5-4.4l26.2-47.1c0.5-0.9,1-1.9,1.6-2.8c3.8-5.9,10-5.9,13.7,0.1c4.2,6.7,8.1,13.5,12.5,20.7
	c0.4-0.9,0.7-1.9,1-2.8c5.7-27,11.3-53.9,17-80.9c2.9-13.8,5.8-27.6,8.8-41.4c1.2-5.4,4.1-7.8,8.8-7.2c4,0.5,6.1,3.1,7,8.9
	c5.7,36.2,11.4,72.3,17.1,108.5c1.5,9.3,3,18.6,4.5,27.8c0.5,0.2,1,0.3,1.5,0.3c16.8,0,33.6,0.1,50.4,0c3.2,0,5.9,2.6,5.9,5.8
	c0,1.3-0.5,2.7-1.3,3.7L288.9,159.3z"/>
</svg>
