<?xml version="1.0" encoding="utf-8"?>
<!-- Generator: Adobe Illustrator 21.1.0, SVG Export Plug-In . SVG Version: 6.00 Build 0)  -->
<svg version="1.1" id="Layer_1" xmlns="http://www.w3.org/2000/svg" xmlns:xlink="http://www.w3.org/1999/xlink" x="0px" y="0px"
	 viewBox="0 0 44.4 44.4" style="enable-background:new 0 0 44.4 44.4;" xml:space="preserve">
<style type="text/css">
	.st0{fill:#8040FF;}
	.st1{fill:#00EBD7;}
</style>
<g>
	<g>
		<path class="st0" d="M39.8,10.9h-0.1V0.6C39.7,0.3,39.4,0,39,0H24.4c-0.4,0-0.6,0.3-0.6,0.6v10.2h-0.1c-2.5,0-4.6,2.1-4.6,4.6v2.4
			c0,0.4,0.3,0.6,0.6,0.6c0.4,0,0.6-0.3,0.6-0.6v-2.4c0-1.8,1.5-3.3,3.3-3.3h0.8H39h0.8c1.8,0,3.3,1.5,3.3,3.3v24.4
			c0,1.8-1.5,3.3-3.3,3.3H23.6c-0.4,0-0.6,0.3-0.6,0.6c0,0.4,0.3,0.6,0.6,0.6h16.2c2.5,0,4.6-2.1,4.6-4.6V15.5
			C44.4,12.9,42.3,10.9,39.8,10.9z M30.9,1.3h1.6v9.6h-1.6V1.3z M29.6,10.9H28V1.3h1.6V10.9z M33.8,1.3h1.6v9.6h-1.6V1.3z M25.1,1.3
			h1.7v9.6h-1.7V1.3z M36.7,10.9V1.3h1.7v9.6H36.7z"/>
		<path class="st0" d="M32.6,35.4c-0.4,0-0.6,0.3-0.6,0.6c0,0.4,0.3,0.6,0.6,0.6h4.3c0.4,0,0.6-0.3,0.6-0.6V21.7
			c0-0.4-0.3-0.6-0.6-0.6l-10.5-0.2c-0.4,0-0.6,0.3-0.7,0.6c0,0.4,0.3,0.6,0.6,0.7l9.8,0.2v13H32.6z"/>
	</g>
	<g>
		<path class="st1" d="M27.1,31.8h-5.4l3.8-3.8c1.2-1.2,1.8-2.8,1.8-4.5c0-1.7-0.7-3.3-1.8-4.5c-1.2-1.2-2.8-1.8-4.5-1.8
			c-1.7,0-3.3,0.7-4.5,1.8L1.9,33.5c-0.1,0-0.1,0.1-0.1,0.1l0,0l0,0C0.7,34.8,0,36.4,0,38.1c0,3.5,2.8,6.3,6.3,6.3h20.8
			c3.5,0,6.3-2.8,6.3-6.3C33.4,34.6,30.6,31.8,27.1,31.8z M17.5,19.9c0.9-0.9,2.2-1.5,3.6-1.5c1.4,0,2.6,0.5,3.6,1.5
			c0.9,0.9,1.5,2.2,1.5,3.6c0,1.4-0.5,2.6-1.5,3.6l-4.7,4.7h-4.4l-5-5L17.5,19.9z M9.6,27.7l4,4H6.3c-0.3,0-0.6,0-0.8,0.1L9.6,27.7z
			 M1.3,38.1c0-1.4,0.6-2.6,1.4-3.5l0.1-0.1C3.7,33.6,5,33,6.3,33h9.7v10.1H6.3C3.5,43.1,1.3,40.9,1.3,38.1z M27.1,43.1h-9.7V33h9.7
			c2.8,0,5,2.3,5,5C32.2,40.9,29.9,43.1,27.1,43.1z"/>
		<path class="st1" d="M27.1,34.2H19c-0.4,0-0.6,0.3-0.6,0.6s0.3,0.6,0.6,0.6h8.2c1.2,0,2.3,1,2.3,2.3c0,0.4,0.3,0.6,0.6,0.6
			c0.4,0,0.6-0.3,0.6-0.6C30.7,35.8,29.1,34.2,27.1,34.2z"/>
		<path class="st1" d="M12.5,27.3c0.1,0.1,0.3,0.2,0.5,0.2c0.2,0,0.3-0.1,0.5-0.2l5.8-5.8c0.8-0.8,2.3-0.8,3.2,0
			c0.3,0.3,0.7,0.3,0.9,0c0.3-0.3,0.3-0.7,0-0.9c-1.3-1.3-3.7-1.3-5,0l-5.8,5.8C12.3,26.6,12.3,27,12.5,27.3z"/>
	</g>
</g>
</svg>
