<?xml version="1.0" encoding="utf-8"?>
<!-- Generator: Adobe Illustrator 21.1.0, SVG Export Plug-In . SVG Version: 6.00 Build 0)  -->
<svg version="1.1" id="head" xmlns="http://www.w3.org/2000/svg" xmlns:xlink="http://www.w3.org/1999/xlink" x="0px" y="0px"
	 viewBox="0 0 44.4 44" style="enable-background:new 0 0 44.4 44;" xml:space="preserve">
<g>
	<g>
		<path class="st0" d="M38.5,21.6l0-4.9c0-1.6-1.1-2.9-2.6-3.1c0-0.3,0.1-0.5,0.1-0.8v-10c0-0.3-0.2-0.5-0.4-0.6
			c-0.2-0.1-0.5,0-0.7,0.1l-1.7,1.8c-1.3,1.3-3.1,2.1-4.9,2.1H15.4c-3.6,0-6.6,3-6.6,6.6c0,0.3,0,0.6,0.1,0.8
			c-1.3,0.3-2.3,1.6-2.3,3.1v4.9l0,0l0,0l0,4.9c0,1.5,1.1,2.8,2.5,3.1V31C9,38.2,14.9,44,22.1,44h0.8C30.1,44,36,38.2,36,31v-1.4
			c1.4-0.3,2.5-1.6,2.5-3.1L38.5,21.6C38.5,21.6,38.5,21.6,38.5,21.6L38.5,21.6z M7.8,26.5l0-4.9v-4.9c0-1,0.8-1.9,1.8-1.9
			c0,0,0,0,0.1,0c0,0,0.1,0,0.1,0c0,0,0,0,0,0c0,0,0.1,0,0.1-0.1c0,0,0.1,0,0.1-0.1c0,0,0.1-0.1,0.1-0.1c0,0,0-0.1,0.1-0.1
			c0,0,0-0.1,0-0.1c0,0,0-0.1,0-0.1c0,0,0,0,0-0.1c0,0,0-0.1,0-0.1c0,0,0,0,0-0.1c-0.1-0.4-0.1-0.8-0.1-1.2c0-2.9,2.4-5.3,5.3-5.3
			h12.8c2.2,0,4.3-0.9,5.8-2.5l0.6-0.6v8.4c0,2.9-2.4,5.3-5.3,5.3H15.4c-1.3,0-2.6-0.5-3.6-1.4c0,0,0,0-0.1,0c0,0,0,0,0,0
			c0,0,0,0-0.1,0c0,0-0.1,0-0.1,0c0,0-0.1,0-0.1,0c0,0-0.1,0-0.1,0c0,0-0.1,0-0.1,0c0,0-0.1,0-0.1,0.1c0,0-0.1,0-0.1,0.1
			c0,0,0,0-0.1,0c0,0,0,0,0,0.1c0,0,0,0,0,0c-1.2,2-1.8,4.3-1.8,6.6v4.8C8.3,28,7.8,27.3,7.8,26.5z M34.7,31
			c0,6.5-5.3,11.8-11.8,11.8h-0.8c-6.5,0-11.8-5.3-11.8-11.8V29c0,0,0,0,0,0c0,0,0,0,0,0v-5.5c0-1.9,0.5-3.7,1.3-5.3
			c1.1,0.8,2.4,1.2,3.8,1.2h13.9c1.5,0,2.9-0.5,4-1.3c0.9,1.7,1.4,3.5,1.4,5.4V31z M36,28.2v-4.8c0-2.2-0.6-4.4-1.7-6.4
			c0.6-0.7,1-1.4,1.3-2.3c0.9,0.1,1.6,0.9,1.6,1.9l0,4.9l0,4.9C37.2,27.3,36.7,28,36,28.2z"/>
		<path class="st0" d="M26.8,36.5c-2.3-1.4-5.4-1.4-7.7,0c-0.3,0.2-0.4,0.6-0.2,0.9c0.2,0.3,0.6,0.4,0.9,0.2c1.9-1.2,4.4-1.2,6.3,0
			c0.1,0.1,0.2,0.1,0.3,0.1c0.2,0,0.4-0.1,0.5-0.3C27.2,37,27.1,36.7,26.8,36.5z"/>
		<path class="st0" d="M16.3,24c-0.4,0-0.6,0.3-0.6,0.6v2.3c0,0.4,0.3,0.6,0.6,0.6c0.4,0,0.6-0.3,0.6-0.6v-2.3
			C16.9,24.3,16.6,24,16.3,24z"/>
		<path class="st0" d="M29.6,24c-0.4,0-0.6,0.3-0.6,0.6v2.3c0,0.4,0.3,0.6,0.6,0.6c0.4,0,0.6-0.3,0.6-0.6v-2.3
			C30.2,24.3,29.9,24,29.6,24z"/>
	</g>
	<g>
		<path class="st1" d="M22.2,9.6c0.2,0,22.2,0,22.2-4.2c0-0.6,0-2.3-9-3.5L33,1.7c-6.3-0.6-14.5-0.6-21-0.1c-0.4,0-0.6,0.3-0.6,0.7
			c0,0.4,0.3,0.6,0.7,0.6c6.4-0.6,14.5-0.5,20.7,0l2.4,0.3c6.2,0.8,7.8,1.9,7.9,2.2c-0.2,1-7.7,2.9-20.9,2.9S1.5,6.4,1.3,5.4
			c0.1-0.3,1.3-1.1,5.6-1.9L4.6,5.1C4.3,5.3,4.2,5.7,4.4,6c0.1,0.2,0.3,0.3,0.5,0.3c0.1,0,0.2,0,0.4-0.1L10,3.1c0,0,0,0,0,0
			c0.1-0.1,0.1-0.1,0.2-0.2c0,0,0,0,0-0.1c0-0.1,0.1-0.2,0.1-0.3l0,0l0,0c0,0,0,0,0,0c0-0.1-0.1-0.2-0.1-0.3c0,0,0,0-0.1-0.1
			C10.1,2,10,2,9.9,1.9c0,0,0,0,0,0L4.6,0C4.3-0.1,3.9,0.1,3.8,0.4C3.7,0.8,3.8,1.1,4.2,1.3l2.8,1C0,3.4,0,4.9,0,5.4
			C0,9.6,22,9.6,22.2,9.6z"/>
		<path class="st1" d="M41.6,8.3c-0.3-0.1-0.7,0.1-0.8,0.4c-0.1,0.3,0.1,0.7,0.4,0.8c1.8,0.6,1.9,1,2,1c-0.2,1-7.7,2.9-20.9,2.9
			c-13.3,0-20.7-1.9-20.9-2.9c0,0,0.2-0.5,2.2-1.1C3.8,9.4,4,9,3.9,8.7C3.8,8.3,3.4,8.1,3.1,8.3C1,8.9,0,9.6,0,10.6
			c0,4.1,22,4.2,22.2,4.2c0.2,0,22.2,0,22.2-4.2C44.4,9.4,42.8,8.7,41.6,8.3z"/>
	</g>
</g>
</svg>
