<?xml version="1.0" encoding="utf-8"?>
<!-- Generator: Adobe Illustrator 21.1.0, SVG Export Plug-In . SVG Version: 6.00 Build 0)  -->
<svg version="1.1" id="Слой_1" xmlns="http://www.w3.org/2000/svg" xmlns:xlink="http://www.w3.org/1999/xlink" x="0px" y="0px"
	 viewBox="0 0 409.6 409.5" style="enable-background:new 0 0 409.6 409.5;" xml:space="preserve">
<path d="M0.1,356.8c0.7-2.4,1.3-4.8,2-7.2c2.4-7.8,6.6-14.5,12.4-20.3c27.5-27.5,55-55.1,82.6-82.6c5.8-5.8,11.5-5.8,17.4,0
	c5.5,5.4,10.9,11,15.9,16.1c6-6,11.8-11.8,17.8-17.7c-3-4.1-6.8-8.8-10.1-13.7c-19.6-29-27.8-61.2-24.8-95.9
	c3.3-37.6,19-69.5,46.5-95.4c20.6-19.4,44.9-31.6,72.6-37.2c7-1.4,14.2-2,21.3-2.9c5.1,0,10.1,0,15.2,0c4.1,0.5,8.2,1,12.2,1.6
	C321.4,7.3,354,26.4,379,58.4c13.9,17.7,23.1,37.7,27.4,59.7c7.3,36.8,2.2,71.9-16.7,104.5c-19.6,33.7-48.2,56.7-85.5,67.9
	c-37.8,11.4-74.9,8.3-110.2-9.7c-10.7-5.5-20.6-12.7-30.6-19c-5.2,5.2-11,11-17.1,17.1c5.2,5.1,10.6,10.4,15.9,15.8
	c6.6,6.6,6.6,12,0,18.5c-27.2,27.2-54.4,54.6-81.7,81.7c-22.9,22.7-58.8,18.4-74.3-9C3.3,380.7,2,374.5,0,368.8
	C0.1,364.8,0.1,360.8,0.1,356.8z M261.1,276c70.2,0.1,127.5-57.2,127.6-127.4c0.1-70-57.3-127.4-127.5-127.5S133.8,78.2,133.7,148.5
	C133.6,218.7,190.8,276,261.1,276z M75.2,298.3C65.5,308,55.5,318,45.6,328c-6.4,6.4-13.1,12.6-18.9,19.5
	c-6.5,7.8-7.3,17.1-2.9,26.2c7.7,16.4,28,19.6,41.5,6.6c8.4-8,16.4-16.4,24.6-24.5c7.2-7.2,14.5-14.5,21.5-21.5
	C99.3,322.4,87.5,310.6,75.2,298.3z M91.7,282.9c11.7,11.7,23.5,23.6,35,35c4.7-4.6,9.5-9.4,14.1-13.9c-11.6-11.6-23.4-23.5-35-35.1
	C101.1,273.4,96.3,278.2,91.7,282.9z"/>
<path d="M364,149.1c-0.8,57.3-47.1,103-103.7,102.2c-57.2-0.8-102.6-47.1-102-103.5c0.6-56.6,46.1-102.4,103.4-102.1
	C318.8,46.1,364.7,92.9,364,149.1z M261.1,66.8c-45,0-81.6,36.5-81.8,81.6c-0.2,45.1,36.7,82,81.8,82c45,0,81.4-36.3,81.8-81.6
	C343.3,103.9,306.3,66.8,261.1,66.8z"/>
<path d="M260.2,93.1c15.2,0,28.8,5.1,39.9,16.1c4.1,4,4.2,10.3,0.6,14.5c-3.7,4.2-10.2,4.9-14.7,1c-6-5.1-12.4-9.2-20.4-10.1
	c-10.1-1.2-19.3,1.4-27,8.2c-2.9,2.5-5.8,4.8-9.9,4.4c-4.2-0.3-7.4-2.3-9-6.2c-1.7-4.1-0.7-8.8,2.7-12.1c9.1-8.8,20-13.9,32.6-15.3
	C256.6,93.4,258.2,93.3,260.2,93.1z"/>
</svg>
