<?xml version="1.0" encoding="utf-8"?>
<!-- Generator: Adobe Illustrator 21.1.0, SVG Export Plug-In . SVG Version: 6.00 Build 0)  -->
<svg version="1.1" id="rauf" xmlns="http://www.w3.org/2000/svg" xmlns:xlink="http://www.w3.org/1999/xlink" x="0px" y="0px"
	 viewBox="0 0 44.7 37.8" style="enable-background:new 0 0 44.7 37.8;" xml:space="preserve">

<g>
	<g>
		<path class="st0" d="M12.1,21.8c-0.3,0.2-0.4,0.6-0.3,0.9c0.5,1,1.6,2.6,3.4,2.8c0.4,0.1,0.8,0,1.2-0.1c0.5,0.8,1.4,1.8,2.6,2.2
			c0.1,0,0.2,0,0.2,0c0.3,0,0.5-0.2,0.6-0.4c0.1-0.3,0-0.7-0.4-0.8c-1.1-0.4-1.8-1.4-2.3-2.1c-0.2-0.3-0.5-0.4-0.8-0.3
			c-0.3,0.1-0.7,0.2-1.1,0.1c-1.2-0.1-2-1.4-2.4-2.1C12.8,21.7,12.4,21.6,12.1,21.8z"/>
		<path class="st0" d="M6.8,20C6.9,20,7,20,7.1,20c0.2,0,0.5-0.1,0.6-0.3c0.6-1.1,1.6-1.5,2.2-1.7c0.3,0.3,0.6,0.7,0.8,1
			c0.2,0.3,0.6,0.4,0.9,0.2c0.3-0.2,0.4-0.6,0.2-0.9c-0.3-0.6-0.7-1.1-1.2-1.5c-0.2-0.4-0.3-1.3-0.3-1.8c0-0.3,0.1-0.8,0.3-1.3
			c0.8-1.1,2.4-2,3.8-2.2c0.4,0,0.6-0.4,0.6-0.7c0-0.4-0.4-0.6-0.7-0.6c-1.3,0.2-2.6,0.8-3.7,1.7c0-0.2-0.1-0.3-0.1-0.5
			c-0.1-0.2-0.1-0.4-0.2-0.5c0,0,0,0,0,0c-0.4-1.3,0.9-3.3,2-3.8c0.3-0.2,0.5-0.5,0.3-0.9C12.3,6,11.9,5.9,11.6,6
			C10.1,6.7,8.3,9.4,9,11.4c0,0,0,0,0,0c0,0,0,0,0,0c0.1,0.1,0.1,0.3,0.2,0.4c0.1,0.5,0.2,1.1,0.2,1.5C9.1,14,9,14.6,9,15
			c0,0.5,0,1.2,0.2,1.9c-0.8,0.3-2,0.9-2.7,2.2C6.4,19.4,6.5,19.8,6.8,20z"/>
		<path class="st0" d="M44.7,23.9c0-0.4-0.3-0.7-0.6-0.7c-0.4,0-0.7,0.3-0.7,0.6c0,0.9-0.2,1.8-0.5,2.6c-0.8,1.9-2.2,3.3-4,3.9
			c-0.3,0.1-0.5,0.5-0.4,0.8c0.1,0.3,0.3,0.5,0.6,0.5c0.1,0,0.1,0,0.2,0c0.6-0.2,1.1-0.4,1.6-0.7c-0.4,2.4-1.9,4.4-4,5.2
			c-1.6,0.6-3.3,0.5-4.8-0.4c0.3-0.1,0.6-0.1,0.9-0.2c0.3-0.1,0.6-0.4,0.5-0.8c-0.1-0.3-0.4-0.6-0.8-0.5c-3,0.7-6.3,1.1-9.6,1.2v-4
			c0.3,0.1,0.5,0.3,0.7,0.4c0.7,0.3,2.2,1,4.1,1c0.7,0,1.3-0.1,2-0.3c1-0.3,1.9-0.9,2.6-1.6c0.2-0.3,0.2-0.7,0-0.9
			c-0.3-0.2-0.7-0.2-0.9,0c-0.6,0.6-1.3,1.1-2.1,1.3c-0.5,0.2-1,0.2-1.6,0.2c-1.6,0-2.9-0.6-3.5-0.9c-0.4-0.2-0.9-0.4-1.3-0.7V8.4
			c0-3.9,2.8-7.2,6.3-7.2c2.4,0,4.7,1.6,5.7,4.1c0.1,0.3,0.5,0.5,0.8,0.3c0.3-0.1,0.5-0.5,0.4-0.8c0.7,0.2,1.4,0.5,2.1,1
			c0.6,0.4,1.1,0.9,1.5,1.5c0.1,0.2,0.3,0.3,0.5,0.3c0.1,0,0.3,0,0.4-0.1C41,7.4,41,7,40.8,6.7c-0.5-0.7-1.1-1.3-1.7-1.8
			c-1.1-0.8-2.3-1.3-3.6-1.4C34.1,1.3,31.8,0,29.3,0c-3.1,0-5.8,2.1-7,5.1c-1.2-3-3.9-5.1-7-5.1c-2.5,0-4.8,1.3-6.2,3.5
			C7.9,3.6,6.7,4.1,5.6,4.9c-2.2,1.7-3.4,4.4-3.3,7.2c-0.9,0.9-1.5,2.2-1.6,3.6c-0.1,1.2,0.1,2.4,0.7,3.4c-1.4,2.3-1.7,5.3-0.7,7.9
			c0.4,1.1,1.1,2.1,1.9,2.9c0.1,3.3,2,6.3,4.9,7.5c0.8,0.3,1.6,0.5,2.5,0.5c1.6,0,3.2-0.6,4.5-1.7c2.6,0.4,5.2,0.7,7.9,0.7
			c0,0,0,0,0,0c2.7,0,5.4-0.2,7.9-0.7c1.3,1.1,2.9,1.7,4.5,1.7c0.8,0,1.7-0.2,2.5-0.5c2.9-1.1,4.8-4.1,4.9-7.5
			c0.8-0.8,1.5-1.7,1.9-2.9C44.5,26,44.7,25,44.7,23.9z M12.1,34.3c-0.3-0.1-0.7,0.1-0.8,0.5c-0.1,0.3,0.1,0.7,0.5,0.8
			c0.3,0.1,0.6,0.1,0.9,0.2c-1.5,0.9-3.2,1.1-4.8,0.4c-2.1-0.8-3.6-2.8-4-5.2c0.5,0.3,1,0.5,1.6,0.7c0.1,0,0.1,0,0.2,0
			c0.3,0,0.5-0.2,0.6-0.5c0.1-0.3-0.1-0.7-0.4-0.8c-1.8-0.5-3.3-1.9-4-3.9c-0.8-2.1-0.7-4.4,0.3-6.3c0.8,0.9,1.9,1.5,3.1,1.7
			c0,0,0,0,0.1,0c0.3,0,0.6-0.2,0.6-0.6c0-0.4-0.2-0.7-0.6-0.7c-2.1-0.2-3.6-2.4-3.4-4.8C2,15.1,2.2,14.5,2.5,14
			c0.2,0.9,0.5,1.8,1,2.6c0.1,0.2,0.3,0.3,0.6,0.3c0.1,0,0.2,0,0.3-0.1c0.3-0.2,0.4-0.6,0.2-0.9c-2-3.3-1.2-7.8,1.7-10
			c0.6-0.5,1.4-0.8,2.1-1C8.3,5.3,8.2,5.6,8.1,6C8,6.3,8.2,6.6,8.6,6.7c0.3,0.1,0.7-0.1,0.8-0.4c0.8-3,3.3-5,6-5
			c3.5,0,6.3,3.2,6.3,7.2V10c-0.1-0.1-0.3-0.2-0.4-0.3L21,9.4c-0.8-0.6-2.9-2.4-5.4-1.9c-0.3,0.1-0.6,0.4-0.5,0.8
			c0.1,0.3,0.4,0.6,0.8,0.5c1.9-0.4,3.7,1.1,4.3,1.6l0.3,0.2c0.4,0.3,0.8,0.7,1.2,1.1v3.2c-1.5-0.6-4-1.3-5.9-0.7
			c-0.9,0.3-1.8,0.8-2.4,1.5c-0.2,0.3-0.2,0.7,0,0.9c0.1,0.1,0.3,0.2,0.4,0.2c0.2,0,0.3-0.1,0.5-0.2c0.5-0.6,1.2-1,1.9-1.2
			c1.8-0.6,4.4,0.4,5.5,0.9v3.7c-1.1-0.7-3-1.5-4.7-0.7c-0.7,0.3-1.4,0.9-1.8,1.6c-0.2,0.3-0.1,0.7,0.2,0.9c0.1,0.1,0.2,0.1,0.4,0.1
			c0.2,0,0.4-0.1,0.5-0.3c0.4-0.5,0.8-0.9,1.3-1.1c1.5-0.7,3.3,0.5,4.1,1v8.3c-0.4,0.2-0.9,0.5-1.3,0.7c-0.6,0.3-2,0.9-3.5,0.9
			c-0.5,0-1.1-0.1-1.6-0.2c-0.8-0.2-1.5-0.7-2.1-1.3c-0.1-0.2-1.3-1.5-1.7-2c-0.2-0.2-0.5-0.5-0.9-0.8c0.6-1.4,0.8-3.5,0-4.6
			c-0.2-0.3-0.6-0.4-0.9-0.2c-0.3,0.2-0.4,0.6-0.2,0.9c0.4,0.7,0.4,2.1,0,3.2C8.9,26,8,25.8,7,26c-0.3,0.1-0.6,0.4-0.5,0.8
			c0.1,0.3,0.4,0.6,0.8,0.5c1.5-0.4,2.9,1.1,3.4,1.6c0.3,0.3,1.3,1.5,1.6,1.9c0,0,0,0,0,0c0,0,0,0,0,0c0.7,0.8,1.6,1.3,2.6,1.6
			c0.6,0.2,1.3,0.3,2,0.3c1.8,0,3.4-0.7,4.1-1c0.2-0.1,0.5-0.2,0.7-0.4v4C18.4,35.4,15.2,35,12.1,34.3z"/>
	</g>
	<g>
		<path class="st1" d="M34.4,6.7c-5.8,0-10.6,4.8-10.6,10.6c0,5.8,4.8,10.6,10.6,10.6c5.8,0,10.6-4.8,10.6-10.6
			C45,11.5,40.2,6.7,34.4,6.7z M34.4,26.6c-5.1,0-9.3-4.2-9.3-9.3S29.2,8,34.4,8c5.1,0,9.3,4.2,9.3,9.3S39.5,26.6,34.4,26.6z"/>
		<path class="st1" d="M34.4,10.1c-4,0-7.2,3.2-7.2,7.2c0,4,3.2,7.2,7.2,7.2s7.2-3.2,7.2-7.2C41.5,13.3,38.3,10.1,34.4,10.1z
			 M34.4,23.2c-3.3,0-5.9-2.7-5.9-5.9s2.7-5.9,5.9-5.9c3.3,0,5.9,2.7,5.9,5.9S37.6,23.2,34.4,23.2z"/>
		<path class="st1" d="M34.4,13.2c-2.3,0-4.1,1.8-4.1,4.1c0,2.3,1.8,4.1,4.1,4.1c2.3,0,4.1-1.8,4.1-4.1C38.5,15,36.6,13.2,34.4,13.2
			z M34.4,20.1c-1.6,0-2.8-1.3-2.8-2.8c0-1.6,1.3-2.8,2.8-2.8c1.6,0,2.8,1.3,2.8,2.8C37.2,18.9,35.9,20.1,34.4,20.1z"/>
	</g>
</g>
</svg>
