<?xml version="1.0" encoding="utf-8"?>
<!-- Generator: Adobe Illustrator 21.1.0, SVG Export Plug-In . SVG Version: 6.00 Build 0)  -->
<svg version="1.1" id="Слой_1" xmlns="http://www.w3.org/2000/svg" xmlns:xlink="http://www.w3.org/1999/xlink" x="0px" y="0px"
	 viewBox="0 0 52 224" style="enable-background:new 0 0 52 224;" xml:space="preserve">
<title>warning</title>
<path d="M51.7,80.3c0,18.8,0.4,37.6-0.1,56.4c-0.4,12.9-12.4,23.2-25.5,23.3S1.4,149.6,0.4,136.8C0,131.6,0,126.4,0,121.2
	c0-30.9,0-61.8,0-92.8C0,16.9,4.3,8,14.8,2.7c15.7-8,35.4,3,36.9,20.5c0.1,1.2,0.3,2.4,0.3,3.6c0,17.9,0,35.7,0,53.6L51.7,80.3
	L51.7,80.3z M12,80.2c0,12.5,0,25,0,37.6c0,6-0.2,12,0.3,18c0.7,7.5,7.4,12.9,14.8,12.2c0.7-0.1,1.5-0.2,2.2-0.4
	c6.9-1.7,10.6-7.1,10.6-15.8c0-34.5,0-69,0-103.5c0-1.6-0.1-3.2-0.3-4.8c-1-6.1-6-10.8-12.2-11.4c-9-0.7-15.3,5.4-15.4,15.3
	C12,45,12,62.6,12,80.2L12,80.2z"/>
<path d="M51.9,197.9c0,14.3-11.6,25.9-25.9,25.9c-14.3,0-25.9-11.6-25.9-25.9c0-14.3,11.6-25.9,25.9-25.9
	C40.2,172.2,51.8,183.7,51.9,197.9z M39.9,197.9c0-7.7-6.3-13.9-14-13.9c-7.7,0-13.9,6.3-13.9,14c0,7.7,6.3,13.9,14,13.9
	S40,205.6,39.9,197.9L39.9,197.9z"/>
</svg>
